# xmcd
# 
# Track frame offsets:
#     150
#     9319
#     34850
#     41198
#     64191
#     84016
#     111329
#     118153
#     123768
#     145949
#     151301
#     182391
#     208264
#     244418
#     326462
# 
# Disc length: 4624
# 
# Revision: 6
# Processed by: cddbd v1.5.2PL0 Copyright (c) Steve Scherf et al.
# Submitted via: fre:ac v1.0.31
# 
DISCID=cb120e0f
DTITLE=Emerson Lake and Palmer - Pictures At An Exhibition - Deluxe Edition - Cd 2
DYEAR=1971
DGENRE=Progressive Rock
TTITLE0=01 Promenade
TTITLE1=02 The Gnome
TTITLE2=03 Promenade
TTITLE3=04 The Sage
TTITLE4=05 The Old Castle
TTITLE5=06 Blues Variation
TTITLE6=07 Promenade
TTITLE7=08 The Hut Of Baba Yaga
TTITLE8=09 The Curse Of Baba Yaga
TTITLE9=10 The Hut Of Baba Yaga
TTITLE10=11 The Great Gates Of Kiev
TTITLE11=12 The Barbarian
TTITLE12=13 Knife Edge
TTITLE13=14 Rondo
TTITLE14=15 Nut Rocker
EXTD=YEAR: 1970
EXTT0=
EXTT1=
EXTT2=
EXTT3=
EXTT4=
EXTT5=
EXTT6=
EXTT7=
EXTT8=
EXTT9=
EXTT10=
EXTT11=
EXTT12=
EXTT13=
EXTT14=
PLAYORDER=
